<svg width="374" height="160" viewBox="0 0 374 160" fill="none" xmlns="http://www.w3.org/2000/svg">
<path d="M0.11625 -9.53674e-06H39.3163V117.12H48.2763V120H0.75625V117.12H9.55625V2.87999H0.11625V-9.53674e-06ZM144.2 120H107.72L105.96 108.32C104.253 112.587 101.693 115.893 98.28 118.24C94.9733 120.48 90.0133 121.6 83.4 121.6C66.8667 121.6 58.6 112.693 58.6 94.88V46.72H49.64V43.84H88.36V98.72C88.36 105.12 88.7867 109.333 89.64 111.36C90.6 113.387 92.4133 114.4 95.08 114.4C97.8533 114.4 100.307 112.747 102.44 109.44C104.573 106.133 105.64 101.547 105.64 95.68V46.72H98.28V43.84H135.4V117.12H144.2V120ZM102.12 27.2C100.2 24.8533 99.24 22.0267 99.24 18.72C99.24 15.4133 100.253 12.64 102.28 10.4C104.413 8.15999 107.293 7.04 110.92 7.04C114.653 7.04 117.587 8.05333 119.72 10.08C121.96 12 123.08 14.8267 123.08 18.56C123.08 22.2933 122.013 25.28 119.88 27.52C117.853 29.6533 114.867 30.72 110.92 30.72C106.973 30.72 104.04 29.5467 102.12 27.2ZM71.24 27.2C69.32 24.8533 68.36 22.0267 68.36 18.72C68.36 15.4133 69.3733 12.64 71.4 10.4C73.5333 8.15999 76.4133 7.04 80.04 7.04C83.7733 7.04 86.7067 8.05333 88.84 10.08C91.08 12 92.2 14.8267 92.2 18.56C92.2 22.2933 91.1333 25.28 89 27.52C86.9733 29.6533 83.9867 30.72 80.04 30.72C76.0933 30.72 73.16 29.5467 71.24 27.2ZM211.635 35.52L216.115 32.8C216.755 29.4933 215.475 27.84 212.275 27.84C207.688 27.84 205.395 31.36 205.395 38.4C205.395 41.1733 205.768 44.3733 206.515 48C214.622 53.44 218.675 60.4267 218.675 68.96C218.675 77.3867 215.742 83.9467 209.875 88.64C204.008 93.3333 196.062 95.68 186.035 95.68C181.875 95.68 177.555 95.2533 173.075 94.4C168.382 97.3867 166.035 99.6267 166.035 101.12C166.035 102.613 169.448 103.36 176.275 103.36H192.595C216.808 103.36 228.915 112.053 228.915 129.44C228.915 138.827 225.235 146.24 217.875 151.68C210.622 157.227 199.262 160 183.795 160C157.448 160 144.275 154.293 144.275 142.88C144.275 136.693 148.382 132.427 156.595 130.08L166.195 134.4C165.342 137.493 164.915 140.427 164.915 143.2C164.915 152.373 171.742 156.96 185.395 156.96C193.715 156.96 200.115 155.413 204.595 152.32C209.075 149.227 211.315 145.387 211.315 140.8C211.315 136.213 209.928 133.12 207.155 131.52C204.488 130.027 199.102 129.28 190.995 129.28H175.475C166.835 129.28 160.648 127.84 156.915 124.96C153.182 122.08 151.315 118.56 151.315 114.4C151.315 110.133 152.648 106.613 155.315 103.84C157.982 100.96 162.728 97.44 169.555 93.28C157.182 89.76 150.995 81.6533 150.995 68.96C150.995 60.96 153.875 54.5067 159.635 49.6C165.395 44.6933 174.035 42.24 185.555 42.24C192.488 42.24 198.408 43.5733 203.315 46.24C202.675 43.36 202.355 40.7467 202.355 38.4C202.355 32.4267 203.955 28.1067 207.155 25.44C210.355 22.7733 213.928 21.44 217.875 21.44C221.822 21.44 224.968 22.5067 227.315 24.64C229.768 26.6667 230.995 29.4933 230.995 33.12C230.995 36.7467 230.035 39.4667 228.115 41.28C226.195 42.9867 223.848 43.84 221.075 43.84C218.408 43.84 216.168 43.1467 214.355 41.76C212.648 40.2667 211.742 38.1867 211.635 35.52ZM177.715 65.44V74.08C177.715 81.2267 178.302 86.08 179.475 88.64C180.755 91.2 182.622 92.48 185.075 92.48C187.635 92.48 189.448 91.2533 190.515 88.8C191.688 86.24 192.275 81.0667 192.275 73.28V65.44C192.275 57.12 191.742 51.68 190.675 49.12C189.608 46.4533 187.795 45.12 185.235 45.12C182.782 45.12 180.915 46.5067 179.635 49.28C178.355 51.9467 177.715 57.3333 177.715 65.44ZM265.406 82.4H270.046V70.08C270.046 59.9467 269.46 53.1733 268.286 49.76C267.22 46.24 265.086 44.48 261.886 44.48C259.966 44.48 258.206 45.0133 256.606 46.08C255.113 47.04 254.366 48.4267 254.366 50.24C254.366 51.9467 254.686 53.7067 255.326 55.52H259.326C260.18 57.76 260.606 60.48 260.606 63.68C260.606 66.7733 259.273 69.4933 256.606 71.84C253.94 74.08 250.58 75.2 246.526 75.2C237.353 75.2 232.766 70.7733 232.766 61.92C232.766 48.8 243.913 42.24 266.206 42.24C278.9 42.24 287.646 44.4267 292.446 48.8C297.353 53.0667 299.806 60.96 299.806 72.48V104.96C299.806 110.507 301.353 113.28 304.446 113.28C308.073 113.28 310.206 107.787 310.846 96.8L313.246 96.96C312.82 106.347 311.06 112.8 307.966 116.32C304.873 119.84 299.806 121.6 292.766 121.6C279.966 121.6 272.606 117.653 270.686 109.76C269.3 113.813 267.22 116.8 264.446 118.72C261.673 120.64 257.62 121.6 252.286 121.6C236.5 121.6 228.606 115.147 228.606 102.24C228.606 94.6667 231.593 89.4933 237.566 86.72C243.646 83.84 252.926 82.4 265.406 82.4ZM259.006 102.08C259.006 107.627 259.273 111.2 259.806 112.8C260.446 114.4 261.566 115.2 263.166 115.2C264.873 115.2 266.42 113.867 267.806 111.2C269.3 108.427 270.046 104.64 270.046 99.84V84.96H268.926C262.313 84.96 259.006 89.8133 259.006 99.52V102.08ZM320.475 97.12V46.72H311.675V43.84H320.475V23.2L350.235 15.84V43.84H371.035V46.72H350.235V100.64C350.235 105.653 350.715 109.333 351.675 111.68C352.742 114.027 354.875 115.2 358.075 115.2C361.275 115.2 364.048 113.6 366.395 110.4C368.848 107.2 370.448 102.827 371.195 97.28L373.915 97.6C373.062 104.96 370.715 110.827 366.875 115.2C363.035 119.467 356.688 121.6 347.835 121.6C338.982 121.6 332.208 119.84 327.515 116.32C322.822 112.8 320.475 106.4 320.475 97.12Z" fill="black"/>
</svg>
